<svg width="114" height="29" viewBox="0 0 114 29" fill="none" xmlns="http://www.w3.org/2000/svg">
<rect y="6.5" width="8" height="16" rx="4" fill="#D9D9D9"/>
<rect x="10" y="3.5" width="11" height="22" rx="5.5" fill="#D9D9D9"/>
<path d="M43.8409 14.2727C43.8409 16.1136 43.5085 17.7045 42.8438 19.0455C42.179 20.3864 41.267 21.4205 40.108 22.1477C38.9489 22.875 37.625 23.2386 36.1364 23.2386C34.6477 23.2386 33.3239 22.875 32.1648 22.1477C31.0057 21.4205 30.0938 20.3864 29.429 19.0455C28.7642 17.7045 28.4318 16.1136 28.4318 14.2727C28.4318 12.4318 28.7642 10.8409 29.429 9.5C30.0938 8.15909 31.0057 7.125 32.1648 6.39773C33.3239 5.67045 34.6477 5.30682 36.1364 5.30682C37.625 5.30682 38.9489 5.67045 40.108 6.39773C41.267 7.125 42.179 8.15909 42.8438 9.5C43.5085 10.8409 43.8409 12.4318 43.8409 14.2727ZM41.7955 14.2727C41.7955 12.7614 41.5426 11.4858 41.0369 10.446C40.5369 9.40625 39.858 8.61932 39 8.08523C38.1477 7.55114 37.1932 7.28409 36.1364 7.28409C35.0795 7.28409 34.1222 7.55114 33.2642 8.08523C32.4119 8.61932 31.733 9.40625 31.2273 10.446C30.7273 11.4858 30.4773 12.7614 30.4773 14.2727C30.4773 15.7841 30.7273 17.0597 31.2273 18.0994C31.733 19.1392 32.4119 19.9261 33.2642 20.4602C34.1222 20.9943 35.0795 21.2614 36.1364 21.2614C37.1932 21.2614 38.1477 20.9943 39 20.4602C39.858 19.9261 40.5369 19.1392 41.0369 18.0994C41.5426 17.0597 41.7955 15.7841 41.7955 14.2727ZM47.3949 5.54545H49.9176L55.8494 20.0341H56.054L61.9858 5.54545H64.5085V23H62.5312V9.73864H62.3608L56.9062 23H54.9972L49.5426 9.73864H49.3722V23H47.3949V5.54545ZM78.2919 9.90909C78.1896 9.04545 77.7749 8.375 77.0476 7.89773C76.3203 7.42045 75.4283 7.18182 74.3714 7.18182C73.5987 7.18182 72.9226 7.30682 72.343 7.55682C71.7692 7.80682 71.3203 8.15057 70.9964 8.58807C70.6783 9.02557 70.5192 9.52273 70.5192 10.0795C70.5192 10.5455 70.63 10.946 70.8516 11.2812C71.0788 11.6108 71.3686 11.8864 71.7209 12.108C72.0732 12.3239 72.4425 12.5028 72.8288 12.6449C73.2152 12.7812 73.5703 12.892 73.8942 12.9773L75.6669 13.4545C76.1214 13.5739 76.6271 13.7386 77.1839 13.9489C77.7464 14.1591 78.2834 14.446 78.7947 14.8097C79.3118 15.1676 79.7379 15.6278 80.0732 16.1903C80.4084 16.7528 80.576 17.4432 80.576 18.2614C80.576 19.2045 80.3288 20.0568 79.8345 20.8182C79.3459 21.5795 78.63 22.1847 77.6868 22.6335C76.7493 23.0824 75.6101 23.3068 74.2692 23.3068C73.0192 23.3068 71.9368 23.1051 71.022 22.7017C70.1129 22.2983 69.397 21.7358 68.8743 21.0142C68.3572 20.2926 68.0646 19.4545 67.9964 18.5H70.1783C70.2351 19.1591 70.4567 19.7045 70.843 20.1364C71.2351 20.5625 71.7294 20.8807 72.326 21.0909C72.9283 21.2955 73.576 21.3977 74.2692 21.3977C75.076 21.3977 75.8004 21.267 76.4425 21.0057C77.0845 20.7386 77.593 20.3693 77.968 19.8977C78.343 19.4205 78.5305 18.8636 78.5305 18.2273C78.5305 17.6477 78.3686 17.1761 78.0447 16.8125C77.7209 16.4489 77.2947 16.1534 76.7663 15.9261C76.2379 15.6989 75.6669 15.5 75.0533 15.3295L72.9055 14.7159C71.5419 14.3239 70.4624 13.7642 69.6669 13.0369C68.8714 12.3097 68.4737 11.358 68.4737 10.1818C68.4737 9.20454 68.7379 8.35227 69.2663 7.625C69.8004 6.89205 70.5163 6.32386 71.4141 5.92045C72.3175 5.51136 73.326 5.30682 74.4396 5.30682C75.5646 5.30682 76.5646 5.50852 77.4396 5.91193C78.3146 6.30966 79.0078 6.85511 79.5192 7.54829C80.0362 8.24148 80.3089 9.02841 80.3374 9.90909H78.2919ZM82.5511 5.54545H84.9716L89.8125 13.6932H90.017L94.858 5.54545H97.2784L90.9716 15.8068V23H88.858V15.8068L82.5511 5.54545ZM109.558 9.90909C109.455 9.04545 109.04 8.375 108.313 7.89773C107.586 7.42045 106.694 7.18182 105.637 7.18182C104.864 7.18182 104.188 7.30682 103.609 7.55682C103.035 7.80682 102.586 8.15057 102.262 8.58807C101.944 9.02557 101.785 9.52273 101.785 10.0795C101.785 10.5455 101.896 10.946 102.117 11.2812C102.344 11.6108 102.634 11.8864 102.987 12.108C103.339 12.3239 103.708 12.5028 104.094 12.6449C104.481 12.7812 104.836 12.892 105.16 12.9773L106.933 13.4545C107.387 13.5739 107.893 13.7386 108.45 13.9489C109.012 14.1591 109.549 14.446 110.06 14.8097C110.577 15.1676 111.004 15.6278 111.339 16.1903C111.674 16.7528 111.842 17.4432 111.842 18.2614C111.842 19.2045 111.594 20.0568 111.1 20.8182C110.612 21.5795 109.896 22.1847 108.952 22.6335C108.015 23.0824 106.876 23.3068 105.535 23.3068C104.285 23.3068 103.202 23.1051 102.288 22.7017C101.379 22.2983 100.663 21.7358 100.14 21.0142C99.6229 20.2926 99.3303 19.4545 99.2621 18.5H101.444C101.501 19.1591 101.722 19.7045 102.109 20.1364C102.501 20.5625 102.995 20.8807 103.592 21.0909C104.194 21.2955 104.842 21.3977 105.535 21.3977C106.342 21.3977 107.066 21.267 107.708 21.0057C108.35 20.7386 108.859 20.3693 109.234 19.8977C109.609 19.4205 109.796 18.8636 109.796 18.2273C109.796 17.6477 109.634 17.1761 109.31 16.8125C108.987 16.4489 108.56 16.1534 108.032 15.9261C107.504 15.6989 106.933 15.5 106.319 15.3295L104.171 14.7159C102.808 14.3239 101.728 13.7642 100.933 13.0369C100.137 12.3097 99.7393 11.358 99.7393 10.1818C99.7393 9.20454 100.004 8.35227 100.532 7.625C101.066 6.89205 101.782 6.32386 102.68 5.92045C103.583 5.51136 104.592 5.30682 105.705 5.30682C106.83 5.30682 107.83 5.50852 108.705 5.91193C109.58 6.30966 110.273 6.85511 110.785 7.54829C111.302 8.24148 111.575 9.02841 111.603 9.90909H109.558Z" fill="white"/>
</svg>
